<svg class="main-img" width="355" height="266" viewBox="0 0 355 266" fill="none" xmlns="http://www.w3.org/2000/svg">
  <path opacity="0.1" d="M275.824 195.278L275.227 195.286L274.936 194.765L262.322 172.129V241.154H307.095V194.836L275.824 195.278Z" stroke="#D5E0F0" stroke-width="2"></path>
  <path opacity="0.1" d="M250.863 194.679L250.601 195.279L249.946 195.278L193.875 195.226V241.154H260.323V173.06L250.863 194.679Z" stroke="#D5E0F0" stroke-width="2"></path>
  <path d="M308.095 168.28H261.322V242.154H308.095V193.822" stroke="#D5E0F0" stroke-width="2" stroke-linecap="round" stroke-linejoin="round"></path>
  <path d="M308.146 168.28L319.504 194.42H275.791L261.273 168.28H191.701L180.326 194.42H249.915L261.273 168.28" stroke="#D5E0F0" stroke-width="2" stroke-linecap="round" stroke-linejoin="round"></path>
  <path d="M261.323 242.154H192.875V194.42" stroke="#D5E0F0" stroke-width="2" stroke-linecap="round" stroke-linejoin="round"></path>
  <path d="M291.143 54.6377L298.969 61.025L291.143 65.753" stroke="#D5E0F0" stroke-width="2" stroke-linecap="round" stroke-linejoin="round"></path>
  <path d="M278.811 65.753L270.985 59.3543L278.811 54.6377" stroke="#D5E0F0" stroke-width="2" stroke-linecap="round" stroke-linejoin="round"></path>
  <path d="M289.672 70.2992L279.929 50.0803" stroke="#D5E0F0" stroke-width="2" stroke-linecap="round" stroke-linejoin="round"></path>
  <path d="M152.256 118.918L135.533 117.052" stroke="#D5E0F0" stroke-width="2" stroke-linecap="round" stroke-linejoin="round"></path>
  <path d="M160.157 71.157L182.455 99.1544" stroke="#D5E0F0" stroke-width="2" stroke-linecap="round" stroke-linejoin="round"></path>
  <path d="M112.576 65.9917L153.719 96.5717" stroke="#D5E0F0" stroke-width="2" stroke-linecap="round" stroke-linejoin="round"></path>
  <path d="M213.938 242.154H158.247" stroke="#D5E0F0" stroke-width="2"></path>
  <path d="M119.836 218.044V235.17M119.836 235.17L126.91 237.876M119.836 235.17L115.556 236.614M119.836 235.17L121.864 241.66" stroke="#0B3052" stroke-width="2" stroke-linecap="round" stroke-linejoin="round"></path>
  <path d="M93.9951 220.612V237.738M93.9951 237.738L101.818 240.398M93.9951 237.738L90.4639 237.875M93.9951 237.738L95.5102 244.183" stroke="#0B3052" stroke-width="2" stroke-linecap="round" stroke-linejoin="round"></path>
  <path d="M102.474 142.364C95.8944 133.519 85.091 115.196 94.5179 112.67C99.9971 111.202 102.226 117.773 102.881 125.684" stroke="black" stroke-width="0.912169"></path>
  <path d="M101.782 141.583C105.76 136.235 112.292 125.156 106.593 123.629C100.893 122.102 101.011 134.962 101.782 141.583Z" stroke="black" stroke-width="0.912169"></path>
  <path d="M55.8696 194.79C36.7723 191.985 0.713641 182.675 9.25706 167.878C17.8005 153.08 43.8918 179.653 55.8696 194.79Z" fill="#059CD8"></path>
  <path d="M59.9747 194.636C49.127 198.941 27.4314 204.967 27.4314 194.636C27.4314 184.305 49.127 190.332 59.9747 194.636Z" fill="#059CD8"></path>
  <path d="M57.5951 196.284C48.4433 189.042 32.3764 173.267 41.3235 168.101C50.2705 162.936 55.8992 184.738 57.5951 196.284Z" fill="#059CD8"></path>
  <path d="M52.9366 186.329C52.9366 213.278 77.9108 227.477 104.861 227.477C131.81 227.477 153.657 213.278 153.657 186.329C153.657 178.105 149.46 172.17 145.867 165.372C137.686 149.893 123.587 137.532 104.861 137.532C77.9108 137.532 52.9366 159.379 52.9366 186.329Z" fill="#06ADEF"></path>
  <path fill-rule="evenodd" clip-rule="evenodd" d="M100.094 227.228C101.663 227.326 103.254 227.375 104.862 227.375C127.397 227.375 146.365 217.764 151.974 198.859C149.591 198.501 147.152 198.315 144.669 198.315C124.801 198.315 107.706 210.189 100.094 227.228Z" fill="#059CD8"></path>
  <path d="M84.5649 222.133C97.3487 221.631 118.218 209.134 115.385 185.847C112.551 162.561 67.7635 158.765 70.6796 176.372C71.6385 182.161 74.9644 183.463 79.8469 183.65C71.0859 183.833 65.3151 184.716 63.302 192.229C61.6409 198.428 67.0281 202.095 72.8557 202.56C59.9636 202.446 51.5401 206.291 51.5401 211.604C51.5401 220.875 69.2679 222.733 84.5649 222.133Z" fill="#059CD8"></path>
  <path d="M141.639 163.285C141.639 170.042 145.937 175.769 152.537 175.769C159.162 175.769 163.544 170.467 163.544 163.739C163.544 157.005 159.157 151.598 152.537 151.598C149.195 151.598 146.482 152.853 144.6 154.923C142.714 156.997 141.639 159.918 141.639 163.285Z" fill="white" stroke="#059CD8" stroke-width="0.912169"></path>
  <path d="M131.571 175.642C134.806 175.588 137.401 174.282 139.204 172.191C141.051 170.049 142.087 167.056 142.087 163.684C142.087 156.97 137.415 151.598 130.778 151.598C127.448 151.598 124.774 152.943 122.926 155.111C121.072 157.286 120.031 160.311 120.031 163.684C120.031 167.72 121.521 171.256 124.112 173.437C125.374 173.397 127.155 173.639 128.46 173.998C129.131 174.182 129.846 174.501 130.431 174.831C130.724 174.996 130.993 175.168 131.212 175.333C131.34 175.43 131.466 175.534 131.571 175.642Z" fill="white" stroke="#059CD8" stroke-width="0.912169"></path>
  <path d="M123.751 163.76C123.751 167.932 127.134 171.315 131.306 171.315C135.479 171.315 138.862 167.932 138.862 163.76C138.862 159.587 135.479 156.204 131.306 156.204C127.134 156.204 123.751 159.587 123.751 163.76Z" fill="#B4E3FB"></path>
  <path d="M126.457 163.76C126.457 166.263 128.487 168.293 130.99 168.293C133.494 168.293 135.524 166.263 135.524 163.76C135.524 161.256 133.494 159.226 130.99 159.226C128.487 159.226 126.457 161.256 126.457 163.76Z" fill="#0B3052"></path>
  <path d="M144.906 163.76C144.906 167.932 148.288 171.315 152.461 171.315C156.634 171.315 160.016 167.932 160.016 163.76C160.016 159.587 156.634 156.204 152.461 156.204C148.288 156.204 144.906 159.587 144.906 163.76Z" fill="#B4E3FB"></path>
  <path d="M147.927 163.76C147.927 166.263 149.957 168.293 152.461 168.293C154.964 168.293 156.994 166.263 156.994 163.76C156.994 161.256 154.964 159.226 152.461 159.226C149.957 159.226 147.927 161.256 147.927 163.76Z" fill="#0B3052"></path>
  <path d="M147.928 160.737C147.928 161.572 148.605 162.248 149.439 162.248C150.274 162.248 150.95 161.572 150.95 160.737C150.95 159.903 150.274 159.226 149.439 159.226C148.605 159.226 147.928 159.903 147.928 160.737Z" fill="white"></path>
  <path d="M126.773 160.737C126.773 161.572 127.45 162.248 128.284 162.248C129.119 162.248 129.795 161.572 129.795 160.737C129.795 159.903 129.119 159.226 128.284 159.226C127.45 159.226 126.773 159.903 126.773 160.737Z" fill="white"></path>
  <path d="M142.261 150.945C138.845 147.692 130.062 143.138 122.254 150.945" stroke="#0B3052" stroke-width="0.912169"></path>
  <path d="M161.779 150.945C158.364 147.692 149.58 143.138 141.773 150.945" stroke="#0B3052" stroke-width="0.912169"></path>
  <path fill-rule="evenodd" clip-rule="evenodd" d="M160.978 175.909C151.572 179.473 139.184 175.344 139.184 175.344C142.67 177.135 151.577 178.888 156.75 179.007L143.249 186.803C136.162 178.366 135.709 175.344 143.249 165.673L160.978 175.909Z" fill="#0B3052"></path>
  <path d="M119.826 177.057C119.314 179.337 121.342 181.734 124.354 182.41C127.367 183.086 130.225 181.786 130.736 179.506C131.248 177.226 129.221 174.83 126.208 174.154C123.195 173.477 120.338 174.777 119.826 177.057Z" fill="#08B3F7"></path>
  <path fill-rule="evenodd" clip-rule="evenodd" d="M118.923 181.896C120.113 183.303 121.853 184.326 123.825 184.769C125.798 185.212 127.808 185.03 129.485 184.267C131.163 183.504 132.638 182.076 133.096 180.036C133.553 177.996 132.831 176.075 131.64 174.667C130.45 173.26 128.71 172.237 126.738 171.794C124.765 171.352 122.755 171.533 121.078 172.296C119.399 173.06 117.925 174.488 117.467 176.528C117.009 178.567 117.732 180.488 118.923 181.896ZM124.355 182.41C121.342 181.734 119.314 179.337 119.826 177.057C120.338 174.777 123.195 173.477 126.208 174.153C129.221 174.83 131.248 177.226 130.737 179.506C130.225 181.786 127.367 183.086 124.355 182.41Z" fill="#06ADEF"></path>
  <path fill-rule="evenodd" clip-rule="evenodd" d="M131.643 175.023C132.619 176.032 133.158 177.383 132.877 179.206L133.773 179.344C134.097 177.238 133.465 175.604 132.295 174.393C131.143 173.2 129.495 172.442 127.805 171.994C126.109 171.544 124.329 171.395 122.868 171.452C122.137 171.481 121.475 171.561 120.936 171.686C120.419 171.807 119.942 171.984 119.653 172.253L120.271 172.916C120.376 172.819 120.651 172.684 121.141 172.57C121.61 172.461 122.213 172.385 122.903 172.358C124.284 172.304 125.973 172.446 127.572 172.87C129.177 173.296 130.649 173.995 131.643 175.023Z" fill="#059CD8"></path>
</svg>
